<svg width="130" height="176" viewBox="0 0 130 176" fill="none" xmlns="http://www.w3.org/2000/svg">
<path d="M69.9965 15.6001C67.1522 15.6001 64.7663 17.6956 64.4521 20.4565L54.4701 108.343C54.0998 111.576 56.6823 114.4 60.0035 114.4C62.8422 114.4 65.2337 112.305 65.5479 109.544L75.5299 21.6572C75.9002 18.4242 73.3177 15.6001 69.9965 15.6001ZM29.6957 35.9476C28.2595 35.9476 26.8232 36.4853 25.7292 37.5557L1.64517 61.1193C-0.548389 63.2654 -0.548389 66.7402 1.64517 68.8809L25.7292 92.4445C27.9172 94.5852 31.4743 94.5852 33.6623 92.4445C35.8502 90.3039 35.8502 86.8236 33.6623 84.6829L13.5447 65.0001L33.6623 45.3173C35.8558 43.1766 35.8558 39.6963 33.6623 37.5557C32.5683 36.4853 31.1319 35.9476 29.6957 35.9476ZM100.304 35.9476C98.8681 35.9476 97.4317 36.4853 96.3377 37.5557C94.1498 39.6963 94.1498 43.1766 96.3377 45.3173L116.455 65.0001L96.3377 84.6829C94.1498 86.8236 94.1498 90.3039 96.3377 92.4445C98.5257 94.5852 102.083 94.5852 104.271 92.4445L128.355 68.8809C130.548 66.7348 130.548 63.26 128.355 61.1193L104.271 37.5557C103.177 36.4853 101.74 35.9476 100.304 35.9476Z" fill="#8F69C2"/>
<path d="M30.6548 154.638C30.598 154.065 30.3542 153.62 29.9233 153.303C29.4924 152.985 28.9077 152.827 28.169 152.827C27.6671 152.827 27.2434 152.898 26.8977 153.04C26.5521 153.177 26.2869 153.369 26.1023 153.615C25.9223 153.861 25.8324 154.141 25.8324 154.453C25.8229 154.714 25.8774 154.941 25.9957 155.135C26.1188 155.329 26.2869 155.497 26.5 155.639C26.7131 155.777 26.9593 155.897 27.2386 156.001C27.518 156.101 27.8163 156.186 28.1335 156.257L29.4403 156.57C30.0748 156.712 30.6572 156.901 31.1875 157.138C31.7178 157.375 32.1771 157.666 32.5653 158.011C32.9536 158.357 33.2543 158.764 33.4673 159.233C33.6851 159.702 33.7964 160.239 33.8011 160.845C33.7964 161.735 33.5691 162.507 33.1193 163.161C32.6742 163.809 32.0303 164.313 31.1875 164.673C30.3494 165.028 29.3385 165.206 28.1548 165.206C26.9806 165.206 25.9579 165.026 25.0866 164.666C24.2202 164.306 23.5431 163.774 23.0554 163.068C22.5724 162.358 22.3191 161.48 22.2955 160.433H25.2713C25.3045 160.921 25.4441 161.328 25.6903 161.655C25.9413 161.977 26.2751 162.221 26.6918 162.386C27.1132 162.547 27.589 162.628 28.1193 162.628C28.6402 162.628 29.0923 162.552 29.4759 162.401C29.8641 162.249 30.1648 162.038 30.3778 161.768C30.5909 161.499 30.6974 161.188 30.6974 160.838C30.6974 160.511 30.6004 160.237 30.4062 160.014C30.2169 159.792 29.9375 159.602 29.5682 159.446C29.2036 159.29 28.7562 159.148 28.2259 159.02L26.642 158.622C25.4157 158.324 24.4474 157.857 23.7372 157.223C23.027 156.589 22.6742 155.734 22.679 154.659C22.6742 153.778 22.9086 153.009 23.3821 152.351C23.8603 151.693 24.5161 151.179 25.3494 150.81C26.1828 150.44 27.1297 150.256 28.1903 150.256C29.2699 150.256 30.2121 150.44 31.017 150.81C31.8267 151.179 32.4564 151.693 32.9062 152.351C33.3561 153.009 33.5881 153.771 33.6023 154.638H30.6548ZM40.3418 165.213C39.2386 165.213 38.2845 164.979 37.4796 164.51C36.6794 164.036 36.0615 163.378 35.6259 162.536C35.1903 161.688 34.9725 160.705 34.9725 159.588C34.9725 158.461 35.1903 157.476 35.6259 156.634C36.0615 155.786 36.6794 155.128 37.4796 154.659C38.2845 154.186 39.2386 153.949 40.3418 153.949C41.4451 153.949 42.3968 154.186 43.1969 154.659C44.0019 155.128 44.6221 155.786 45.0577 156.634C45.4933 157.476 45.7112 158.461 45.7112 159.588C45.7112 160.705 45.4933 161.688 45.0577 162.536C44.6221 163.378 44.0019 164.036 43.1969 164.51C42.3968 164.979 41.4451 165.213 40.3418 165.213ZM40.356 162.869C40.8579 162.869 41.277 162.727 41.6131 162.443C41.9493 162.154 42.2026 161.761 42.3731 161.264C42.5483 160.767 42.6359 160.201 42.6359 159.567C42.6359 158.932 42.5483 158.366 42.3731 157.869C42.2026 157.372 41.9493 156.979 41.6131 156.69C41.277 156.402 40.8579 156.257 40.356 156.257C39.8494 156.257 39.4233 156.402 39.0776 156.69C38.7367 156.979 38.4787 157.372 38.3035 157.869C38.133 158.366 38.0478 158.932 38.0478 159.567C38.0478 160.201 38.133 160.767 38.3035 161.264C38.4787 161.761 38.7367 162.154 39.0776 162.443C39.4233 162.727 39.8494 162.869 40.356 162.869ZM53.145 154.091V156.364H46.412V154.091H53.145ZM47.9532 165V153.303C47.9532 152.512 48.1071 151.856 48.4148 151.335C48.7273 150.814 49.1535 150.424 49.6933 150.163C50.233 149.903 50.8462 149.773 51.5327 149.773C51.9968 149.773 52.4205 149.808 52.804 149.879C53.1923 149.95 53.4811 150.014 53.6705 150.071L53.1308 152.344C53.0124 152.306 52.8656 152.27 52.6904 152.237C52.52 152.204 52.3448 152.188 52.1648 152.188C51.7198 152.188 51.4096 152.292 51.2344 152.5C51.0593 152.704 50.9717 152.99 50.9717 153.359V165H47.9532ZM60.3959 154.091V156.364H53.8263V154.091H60.3959ZM55.3178 151.477H58.3433V161.648C58.3433 161.927 58.3859 162.145 58.4712 162.301C58.5564 162.453 58.6748 162.559 58.8263 162.621C58.9825 162.682 59.1625 162.713 59.3661 162.713C59.5081 162.713 59.6501 162.701 59.7922 162.678C59.9342 162.649 60.0431 162.628 60.1189 162.614L60.5947 164.865C60.4432 164.912 60.2302 164.967 59.9555 165.028C59.6809 165.095 59.3471 165.135 58.9541 165.149C58.225 165.178 57.5857 165.08 57.0365 164.858C56.492 164.635 56.0682 164.29 55.7652 163.821C55.4622 163.352 55.313 162.76 55.3178 162.045V151.477ZM64.1188 165L61.15 154.091H64.2111L65.9014 161.42H66.0009L67.7622 154.091H70.7665L72.5563 161.378H72.6486L74.3105 154.091H77.3645L74.4028 165H71.1997L69.3247 158.139H69.1898L67.3148 165H64.1188ZM81.6893 165.206C80.9933 165.206 80.373 165.085 79.8285 164.844C79.284 164.598 78.8531 164.235 78.5359 163.757C78.2234 163.274 78.0671 162.673 78.0671 161.953C78.0671 161.347 78.1784 160.838 78.4009 160.426C78.6235 160.014 78.9265 159.683 79.31 159.432C79.6935 159.181 80.1291 158.991 80.6168 158.864C81.1093 158.736 81.6254 158.646 82.1651 158.594C82.7996 158.527 83.311 158.466 83.6992 158.409C84.0875 158.348 84.3692 158.258 84.5444 158.139C84.7196 158.021 84.8072 157.846 84.8072 157.614V157.571C84.8072 157.121 84.6651 156.773 84.381 156.527C84.1017 156.281 83.704 156.158 83.1879 156.158C82.6433 156.158 82.2101 156.278 81.8881 156.52C81.5662 156.757 81.3531 157.055 81.2489 157.415L78.4506 157.188C78.5927 156.525 78.872 155.952 79.2887 155.469C79.7054 154.981 80.2428 154.607 80.9009 154.347C81.5638 154.081 82.3308 153.949 83.2021 153.949C83.8081 153.949 84.3881 154.02 84.9421 154.162C85.5008 154.304 85.9956 154.524 86.4265 154.822C86.8621 155.121 87.2054 155.504 87.4563 155.973C87.7073 156.437 87.8327 156.993 87.8327 157.642V165H84.9634V163.487H84.8782C84.703 163.828 84.4686 164.129 84.1751 164.389C83.8815 164.645 83.5288 164.846 83.1168 164.993C82.7049 165.135 82.229 165.206 81.6893 165.206ZM82.5558 163.118C83.0008 163.118 83.3938 163.03 83.7347 162.855C84.0756 162.675 84.3432 162.434 84.5373 162.131C84.7314 161.828 84.8285 161.484 84.8285 161.101V159.943C84.7338 160.005 84.6036 160.062 84.4379 160.114C84.2769 160.161 84.0946 160.206 83.891 160.249C83.6874 160.286 83.4838 160.322 83.2802 160.355C83.0766 160.384 82.8919 160.41 82.7262 160.433C82.3711 160.485 82.061 160.568 81.7958 160.682C81.5307 160.795 81.3247 160.949 81.1779 161.143C81.0311 161.333 80.9577 161.57 80.9577 161.854C80.9577 162.266 81.1069 162.58 81.4052 162.798C81.7082 163.011 82.0917 163.118 82.5558 163.118ZM89.78 165V154.091H92.7133V155.994H92.8269C93.0258 155.317 93.3596 154.806 93.8283 154.46C94.2971 154.11 94.8369 153.935 95.4477 153.935C95.5992 153.935 95.7625 153.944 95.9377 153.963C96.1129 153.982 96.2668 154.008 96.3994 154.041V156.726C96.2573 156.683 96.0608 156.645 95.8099 156.612C95.5589 156.579 95.3293 156.562 95.121 156.562C94.6759 156.562 94.2781 156.66 93.9278 156.854C93.5821 157.043 93.3075 157.308 93.1039 157.649C92.905 157.99 92.8056 158.383 92.8056 158.828V165H89.78ZM102.027 165.213C100.905 165.213 99.9393 164.986 99.1297 164.531C98.3248 164.072 97.7045 163.423 97.2689 162.585C96.8333 161.742 96.6155 160.746 96.6155 159.595C96.6155 158.473 96.8333 157.488 97.2689 156.641C97.7045 155.793 98.3177 155.133 99.1084 154.659C99.9038 154.186 100.837 153.949 101.907 153.949C102.626 153.949 103.296 154.065 103.917 154.297C104.542 154.524 105.086 154.867 105.55 155.327C106.019 155.786 106.383 156.364 106.644 157.06C106.904 157.751 107.035 158.561 107.035 159.489V160.32H97.8229V158.445H104.187C104.187 158.009 104.092 157.623 103.902 157.287C103.713 156.951 103.45 156.688 103.114 156.499C102.783 156.304 102.397 156.207 101.956 156.207C101.497 156.207 101.09 156.314 100.735 156.527C100.384 156.735 100.11 157.017 99.9109 157.372C99.7121 157.723 99.6103 158.113 99.6055 158.544V160.327C99.6055 160.866 99.705 161.333 99.9038 161.726C100.107 162.119 100.394 162.422 100.763 162.635C101.133 162.848 101.57 162.955 102.077 162.955C102.413 162.955 102.721 162.907 103 162.812C103.28 162.718 103.519 162.576 103.718 162.386C103.917 162.197 104.068 161.965 104.172 161.69L106.971 161.875C106.829 162.547 106.537 163.134 106.097 163.636C105.661 164.134 105.098 164.522 104.407 164.801C103.72 165.076 102.927 165.213 102.027 165.213Z" fill="#8F69C2"/>
</svg>
