<svg width="26" height="25" viewBox="0 0 26 25" fill="none" xmlns="http://www.w3.org/2000/svg">
<path d="M20.7331 2H4.39974C3.11057 2 2.06641 3.04417 2.06641 4.33333V20.6667C2.06641 21.9558 3.11057 23 4.39974 23H20.7331C22.0222 23 23.0664 21.9558 23.0664 20.6667V4.33333C23.0664 3.04417 22.0222 2 20.7331 2ZM7.59407 18.3333C6.78091 18.3333 6.12174 17.6742 6.12174 16.861V11.6378C6.12291 10.8258 6.78207 10.1667 7.59407 10.1667C8.40724 10.1667 9.06641 10.8258 9.06641 11.639V16.8622C9.06641 17.6742 8.40724 18.3333 7.59407 18.3333ZM7.54274 8.66983C6.64324 8.66983 6.04241 8.07017 6.04241 7.26983C6.04241 6.4695 6.64207 5.86983 7.64191 5.86983C8.54141 5.86983 9.14224 6.4695 9.14224 7.26983C9.14224 8.07017 8.54257 8.66983 7.54274 8.66983ZM18.1419 18.3333C17.3556 18.3333 16.7174 17.6952 16.7174 16.9088V13.8697C16.7174 12.6353 15.9579 12.5 15.6732 12.5C15.3886 12.5 14.4389 12.5408 14.4389 13.8697V16.9088C14.4389 17.6952 13.8007 18.3333 13.0144 18.3333H12.9199C12.1336 18.3333 11.4954 17.6952 11.4954 16.9088V11.639C11.4954 10.8258 12.1546 10.1667 12.9677 10.1667C13.7809 10.1667 14.4401 10.8258 14.4401 11.639C14.4401 11.639 14.7691 10.1667 17.0044 10.1667C18.4266 10.1667 19.5664 11.3065 19.5664 13.8697V16.9088C19.5664 17.6952 18.9282 18.3333 18.1419 18.3333Z" fill="#161616"/>
</svg>
